<?xml version="1.0" standalone="no"?>
<!DOCTYPE svg PUBLIC "-//W3C//DTD SVG 20010904//EN"
 "http://www.w3.org/TR/2001/REC-SVG-20010904/DTD/svg10.dtd">
<svg version="1.0" xmlns="http://www.w3.org/2000/svg"
 width="1200.000000pt" height="1200.000000pt" viewBox="0 0 1200.000000 1200.000000"
 preserveAspectRatio="xMidYMid meet">

<g transform="translate(0.000000,1200.000000) scale(0.100000,-0.100000)"
fill="#000000" stroke="none">
<path d="M1780 6860 l1 -920 4264 0 4264 0 1 918 0 918 -4265 2 -4265 3 0
-921z m6363 861 l2107 -1 0 -865 0 -865 -4205 0 -4205 0 0 868 0 867 2097 -2
c1154 -1 3046 -2 4206 -2z"/>
<path d="M5582 7352 c-100 -36 -172 -136 -172 -240 0 -106 40 -152 176 -204
48 -18 100 -44 115 -59 25 -23 29 -34 29 -82 0 -95 -60 -158 -158 -165 -64 -5
-106 10 -154 55 -31 29 -54 27 -80 -7 -23 -32 -18 -47 29 -83 52 -39 134 -61
203 -54 157 17 260 128 260 283 0 115 -14 129 -240 232 -31 15 -56 34 -65 52
-48 93 29 200 143 200 41 0 114 -29 127 -50 12 -19 41 -10 62 19 l22 28 -27
26 c-68 63 -175 82 -270 49z"/>
<path d="M6845 7357 c-191 -50 -317 -216 -332 -438 -12 -176 53 -312 180 -374
184 -89 434 8 531 208 59 120 70 292 26 410 -26 70 -99 149 -163 177 -60 27
-173 34 -242 17z m192 -101 c85 -40 133 -135 133 -265 0 -263 -182 -439 -394
-380 -57 16 -118 82 -140 153 -25 79 -18 226 15 309 25 65 94 149 143 174 79
41 167 44 243 9z"/>
<path d="M2330 7351 c0 -6 -22 -194 -50 -417 -27 -223 -50 -407 -50 -410 0 -2
71 -4 158 -4 110 0 176 5 217 15 124 33 194 120 195 241 0 75 -26 120 -87 149
-23 11 -42 23 -43 26 0 4 13 12 30 19 52 22 107 91 119 151 20 99 -11 167 -95
209 -46 23 -61 25 -221 28 -124 3 -173 1 -173 -7z m326 -86 c96 -40 79 -210
-26 -262 -37 -19 -60 -23 -143 -23 l-99 0 6 28 c3 15 10 72 16 127 17 160 5
145 116 145 60 0 107 -5 130 -15z m-22 -380 c59 -28 81 -98 55 -176 -28 -83
-83 -108 -231 -109 -126 0 -116 -19 -93 165 8 65 15 123 15 127 0 15 220 9
254 -7z"/>
<path d="M7901 7278 c-5 -13 -16 -58 -26 -101 -18 -81 -18 -82 -85 -89 -20 -2
-25 -8 -25 -33 0 -27 3 -30 38 -33 44 -4 43 10 17 -192 -28 -215 -27 -242 9
-282 27 -30 34 -33 88 -33 56 0 133 26 133 45 0 5 -4 20 -10 35 -10 25 -10 25
-41 10 -37 -19 -78 -16 -93 7 -10 17 -4 94 25 321 l12 87 78 0 c77 0 79 1 79
24 0 13 3 31 6 40 5 14 -5 16 -75 16 l-81 0 5 38 c3 20 9 65 14 100 l8 62 -34
0 c-26 0 -36 -5 -42 -22z"/>
<path d="M4107 7100 c-101 -32 -197 -125 -239 -230 -30 -76 -32 -218 -3 -274
64 -125 204 -110 318 34 l27 35 -2 -70 -3 -70 40 -3 41 -3 34 280 c24 202 31
284 23 292 -31 31 -152 36 -236 9z m143 -72 c0 -7 -7 -60 -15 -117 -23 -176
-114 -321 -200 -321 -70 0 -103 65 -92 176 11 109 77 211 162 250 55 26 145
33 145 12z"/>
<path d="M4734 7096 c-30 -14 -69 -45 -98 -77 l-47 -54 6 67 c7 66 7 67 -18
73 -61 16 -59 22 -94 -260 -17 -143 -32 -275 -32 -292 -1 -33 -1 -33 47 -33
l49 0 12 128 c18 176 27 213 71 280 45 70 86 102 141 109 48 7 76 -14 85 -62
5 -27 -24 -332 -41 -427 -4 -27 -3 -28 44 -28 59 0 51 -21 82 240 28 246 20
295 -54 340 -42 26 -91 25 -153 -4z"/>
<path d="M8372 7101 c-69 -24 -134 -87 -175 -170 -26 -53 -32 -78 -35 -153 -5
-99 9 -153 53 -200 45 -48 83 -63 165 -63 84 1 136 20 203 78 l39 32 -24 22
-23 22 -58 -36 c-135 -85 -256 -41 -261 95 l-1 45 85 13 c97 15 187 44 231 74
88 64 76 195 -24 240 -53 24 -107 25 -175 1z m146 -81 c27 -26 29 -80 4 -103
-10 -9 -35 -24 -56 -32 -42 -18 -186 -48 -193 -41 -10 10 9 66 37 109 50 79
158 113 208 67z"/>
<path d="M8906 7110 c-167 -50 -215 -300 -71 -370 49 -24 93 -25 142 -5 19 8
37 15 39 15 1 0 -2 -14 -8 -31 -6 -17 -8 -45 -5 -63 l5 -32 -51 4 c-161 13
-307 -67 -307 -167 0 -94 79 -145 226 -146 81 0 96 3 149 30 123 63 153 164
82 279 -21 33 -37 70 -37 83 0 13 21 62 46 110 42 80 46 93 42 144 l-4 57 39
5 c41 6 57 19 57 50 0 15 -10 17 -77 17 -43 0 -96 7 -118 15 -44 16 -105 18
-149 5z m135 -89 c72 -73 2 -231 -102 -231 -59 0 -99 42 -99 105 0 56 30 119
68 139 46 26 99 20 133 -13z m6 -464 c15 -16 8 -85 -12 -108 -48 -54 -166 -76
-240 -44 -70 29 -66 107 8 145 36 18 56 21 139 18 53 -2 100 -7 105 -11z"/>
<path d="M9545 7106 c-176 -56 -299 -236 -282 -415 13 -151 110 -216 231 -157
34 17 68 43 87 69 52 67 52 67 45 5 -8 -76 -2 -88 43 -88 l38 0 32 268 c18
147 34 276 35 287 2 38 -145 58 -229 31z m125 -77 c0 -6 -5 -54 -11 -107 -25
-220 -159 -385 -256 -317 -70 49 -46 249 41 352 38 45 119 83 178 83 28 0 48
-5 48 -11z"/>
<path d="M2941 6843 c-17 -148 -34 -280 -37 -295 -6 -28 -5 -28 45 -28 28 0
51 3 51 7 0 4 7 64 15 133 30 243 101 361 208 348 39 -4 39 -4 52 58 5 27 3
32 -18 38 -57 14 -123 -28 -179 -114 l-29 -45 3 70 c1 39 -1 76 -5 83 -5 6
-23 12 -41 12 l-33 0 -32 -267z"/>
<path d="M3312 7098 c3 -7 38 -133 78 -280 l73 -266 -62 -110 c-33 -61 -61
-113 -61 -117 0 -3 21 -5 47 -3 l46 3 199 380 c110 209 202 386 205 393 4 10
-6 12 -43 10 l-49 -3 -110 -217 -110 -217 -55 217 -56 217 -53 3 c-41 2 -52 0
-49 -10z"/>
<path d="M7391 6843 c-17 -148 -34 -280 -37 -295 -6 -28 -5 -28 45 -28 28 0
51 3 51 7 0 4 7 64 15 133 30 243 101 361 208 348 39 -4 39 -4 52 58 5 27 3
32 -18 38 -57 14 -123 -28 -179 -114 l-29 -45 3 70 c1 39 -1 76 -5 83 -5 6
-23 12 -41 12 l-33 0 -32 -267z"/>
<path d="M5961 6643 c-11 -10 -24 -32 -27 -50 -12 -63 71 -108 116 -63 62 62
-21 169 -89 113z"/>
<path d="M6826 4983 c-7 -44 -86 -700 -86 -714 0 -5 18 -9 40 -9 33 0 40 4 45
23 6 29 85 691 85 717 0 17 -7 20 -39 20 -38 0 -39 -2 -45 -37z"/>
<path d="M8952 4997 c-12 -13 -22 -32 -22 -43 0 -24 39 -64 63 -64 25 0 57 36
57 65 0 29 -32 65 -58 65 -10 0 -28 -10 -40 -23z"/>
<path d="M2036 4988 c-5 -14 -86 -696 -86 -715 0 -8 14 -13 38 -13 l39 0 32
263 c17 144 31 272 31 285 0 12 3 22 8 22 4 0 73 -118 154 -263 179 -317 172
-307 208 -307 25 0 30 5 35 33 5 29 85 689 85 702 0 3 -17 5 -39 5 -45 0 -37
35 -76 -305 -30 -253 -33 -271 -45 -259 -4 5 -74 128 -155 274 -81 146 -152
271 -157 278 -6 6 -24 12 -40 12 -16 0 -30 -6 -32 -12z"/>
<path d="M5210 4928 c-5 -13 -17 -52 -26 -88 -17 -70 -25 -80 -66 -80 -24 0
-28 -4 -28 -30 0 -28 3 -30 35 -30 32 0 34 -2 30 -27 -11 -61 -35 -284 -35
-322 0 -85 81 -124 174 -83 49 22 53 28 33 56 -11 15 -17 16 -39 5 -34 -15
-74 -5 -81 20 -3 11 4 89 14 173 10 84 19 159 19 166 0 8 21 12 69 12 l69 0 4
35 4 35 -69 0 -69 0 5 33 c3 17 9 58 13 90 6 57 6 57 -20 57 -18 0 -29 -7 -36
-22z"/>
<path d="M2826 4775 c-62 -22 -108 -66 -146 -140 -28 -55 -35 -81 -39 -143 -6
-121 25 -187 103 -223 77 -35 181 -15 255 47 42 37 43 37 23 57 -20 20 -20 19
-66 -13 -90 -65 -202 -47 -225 37 -14 51 -14 83 2 87 6 2 53 11 102 20 145 28
215 79 215 156 0 98 -111 156 -224 115z m126 -72 c11 -9 18 -30 18 -50 0 -27
-6 -37 -32 -53 -41 -25 -88 -39 -156 -47 l-52 -6 15 42 c8 23 24 55 34 70 39
55 134 79 173 44z"/>
<path d="M3800 4781 c-112 -34 -194 -146 -206 -283 -8 -82 8 -139 53 -188 74
-83 207 -77 317 13 25 20 27 26 17 45 -14 27 -22 27 -52 3 -77 -60 -159 -69
-210 -23 -27 24 -33 37 -37 84 l-4 55 62 7 c86 10 183 42 219 72 58 48 64 128
13 177 -46 44 -108 57 -172 38z m110 -81 c24 -24 25 -48 4 -79 -21 -29 -68
-49 -156 -66 -58 -11 -68 -11 -68 1 0 22 29 86 48 108 50 56 134 74 172 36z"/>
<path d="M4805 4775 c-103 -36 -151 -177 -79 -234 13 -10 49 -29 81 -41 74
-29 96 -50 96 -91 0 -75 -105 -115 -181 -69 -41 25 -59 25 -72 -1 -15 -27 7
-52 66 -75 79 -30 181 -2 231 63 20 26 28 50 31 92 4 53 2 59 -27 88 -17 17
-53 39 -80 48 -96 32 -127 83 -81 133 35 37 95 41 167 11 30 -12 34 -11 47 6
18 25 6 41 -49 66 -48 22 -95 23 -150 4z"/>
<path d="M5619 4776 c-113 -40 -189 -160 -189 -298 0 -81 16 -131 57 -173 81
-84 209 -70 303 31 100 110 120 293 43 385 -52 61 -137 83 -214 55z m133 -85
c29 -26 33 -35 36 -99 10 -177 -95 -309 -208 -262 -75 31 -89 179 -27 300 46
89 136 117 199 61z"/>
<path d="M6220 4775 c-19 -9 -58 -40 -85 -70 l-50 -53 0 61 0 62 -32 3 c-29 3
-31 1 -37 -35 -10 -64 -76 -623 -76 -644 0 -15 7 -19 39 -19 44 0 44 1 56 130
9 93 7 91 61 64 57 -29 95 -30 150 -5 155 70 234 381 123 487 -34 33 -99 41
-149 19z m77 -70 c34 -24 46 -101 29 -185 -8 -37 -21 -82 -30 -98 -21 -42 -73
-91 -102 -98 -36 -9 -93 2 -116 23 -18 16 -20 26 -14 93 17 183 144 328 233
265z"/>
<path d="M7159 4776 c-118 -42 -189 -160 -189 -314 0 -61 5 -85 23 -117 26
-46 75 -82 126 -91 51 -10 139 11 185 43 54 39 65 58 44 80 -17 16 -20 15 -64
-17 -54 -38 -130 -51 -174 -28 -32 17 -60 73 -60 119 l0 36 58 6 c154 16 258
76 269 153 14 104 -100 172 -218 130z m119 -72 c41 -29 27 -86 -29 -114 -41
-22 -174 -48 -185 -37 -14 13 48 117 84 142 42 29 97 33 130 9z"/>
<path d="M7693 4776 c-91 -29 -167 -98 -211 -195 -34 -72 -38 -206 -9 -259 55
-101 176 -91 266 22 l30 37 3 -58 c3 -57 3 -58 36 -61 17 -2 32 0 32 5 0 4 14
116 30 248 16 132 30 243 30 246 0 10 -85 29 -127 28 -21 0 -57 -6 -80 -13z
m117 -63 c-2 -63 -33 -213 -55 -262 -50 -110 -135 -161 -185 -111 -26 26 -34
60 -28 134 9 103 68 195 148 230 36 16 120 22 120 9z"/>
<path d="M8581 4769 c-25 -11 -64 -41 -88 -66 l-42 -47 2 60 2 59 -32 3 c-27
3 -33 -1 -37 -20 -7 -30 -56 -458 -56 -480 0 -14 9 -18 39 -18 46 0 43 -6 62
165 13 129 40 195 99 249 67 60 130 62 149 3 9 -26 7 -72 -9 -203 -27 -228
-28 -214 20 -214 36 0 39 2 45 33 13 82 35 291 35 342 0 131 -77 186 -189 134z"/>
<path d="M9355 4772 c-23 -11 -59 -40 -82 -66 l-42 -48 -3 59 c-3 57 -3 58
-35 61 -22 2 -33 -1 -33 -10 0 -17 -48 -422 -56 -470 l-6 -38 45 0 45 0 12
118 c15 152 24 186 66 250 79 121 194 125 194 7 0 -38 -24 -260 -36 -337 l-6
-38 46 0 c37 0 46 3 46 18 0 9 9 94 21 187 11 95 17 189 14 213 -14 93 -100
136 -190 94z"/>
<path d="M9807 4780 c-78 -24 -137 -108 -137 -197 0 -113 106 -181 214 -137
16 6 18 4 13 -10 -4 -10 -7 -34 -7 -54 l0 -37 -78 -1 c-139 -1 -224 -58 -226
-149 -2 -72 58 -120 162 -131 119 -13 239 50 263 138 13 49 6 80 -27 131 -42
64 -41 86 6 181 37 73 42 92 38 131 -5 44 -5 45 29 51 30 6 53 32 53 60 0 2
-31 4 -69 4 -38 0 -84 7 -104 15 -40 16 -86 18 -130 5z m118 -85 c63 -63 0
-205 -92 -205 -70 0 -102 72 -72 159 23 67 118 93 164 46z m6 -415 c14 -21 4
-78 -18 -103 -44 -49 -152 -63 -210 -27 -26 15 -33 26 -33 51 0 74 46 100 168
97 60 -2 85 -7 93 -18z"/>
<path d="M3123 4768 c2 -7 33 -124 68 -260 l63 -248 36 0 35 0 128 255 c70
140 127 257 127 260 0 3 -18 5 -40 5 l-40 0 -68 -142 c-37 -79 -81 -174 -97
-211 l-30 -68 -7 33 c-16 75 -79 354 -84 371 -4 13 -16 17 -51 17 -32 0 -44
-4 -40 -12z"/>
<path d="M4140 4768 c0 -17 -48 -422 -56 -470 l-6 -38 44 0 44 0 16 133 c25
207 77 297 172 297 42 0 44 1 49 37 8 44 -5 56 -48 48 -42 -7 -75 -33 -112
-89 l-32 -47 -3 68 -3 68 -32 3 c-22 2 -33 -1 -33 -10z"/>
<path d="M8036 4758 c-7 -30 -56 -458 -56 -480 0 -14 9 -18 39 -18 45 0 41
-10 61 163 13 111 42 188 86 233 29 28 42 34 79 34 43 0 44 1 51 36 8 45 -5
58 -49 50 -38 -7 -98 -60 -122 -106 -9 -17 -18 -30 -20 -30 -2 0 -3 30 -2 68
l2 67 -32 3 c-27 3 -33 -1 -37 -20z"/>
<path d="M8930 4768 c0 -17 -48 -423 -56 -470 l-6 -38 44 0 44 0 28 238 c15
130 30 247 33 260 5 20 2 22 -41 22 -30 0 -46 -4 -46 -12z"/>
</g>
</svg>
